<svg xmlns="http://www.w3.org/2000/svg" viewBox="0 0 733.34 733.34"><g id="Слой_2" data-name="Слой 2"><g id="Слой_1-2" data-name="Слой 1"><path d="M200,366.67A166.67,166.67,0,0,0,366.67,533.34V200A166.67,166.67,0,0,0,200,366.67Z"/><path d="M366.67,0C164.16,0,0,164.17,0,366.67S164.16,733.34,366.67,733.34,733.33,569.17,733.33,366.67C734.26,165.09,571.59.93,370,0Zm-300,366.67c.91-165.31,134.69-299.09,300-300V200a166.67,166.67,0,0,1,0,333.34V666.67C201.36,665.76,67.58,532,66.67,366.67Z"/></g></g></svg>